# xmcd
#
# Track frame offsets: 
#        150
#        14125
#        39467
#        62417
#        85690
#        103479
#        126225
#        148037
#        163970
#        181982
#        202282
#        225240
#        242310
#
# Disc length: 3438 seconds
#
# Revision: 6
# Processed by: cddbd v1.5.2PL0 Copyright (c) Steve Scherf et al.
# Submitted via: ExactAudioCopy v0.99pb5
#
DISCID=b40d6c0d
DTITLE=Various Artist - The Dig Australian Blues Project
DYEAR=2005
DGENRE=Blues
TTITLE0=Mia Dyson - Rock Me Baby
TTITLE1=Jeff Lang feat. Ian Collard and Shorty - Motherless Children Hav
TTITLE1=e A Hard Time
TTITLE2=Jackie Orszaczky Band - Lonely Avenue
TTITLE3=Lisa Miller - Red Cross Store
TTITLE4=TZU - Sweet Little Hoochie
TTITLE5=Dave Graney and Lurid Yellow Mist - Are You Glad To Be In Americ
TTITLE5=a
TTITLE6=Alison Wedding - Wackadoo Blues
TTITLE7=Geoff Achison - Mother Earth
TTITLE8=Machine Translations and CW Stoneking - Spoonful
TTITLE9=The Backsliders - Preaching Blues
TTITLE10=Zydecats - Garbage Man
TTITLE11=Jimmy Little feat. Chris Wilson - Cottonfields
TTITLE12=Fourplay - Drunken Hearted Man Blues
EXTD=
EXTT0=
EXTT1=
EXTT2=
EXTT3=
EXTT4=
EXTT5=
EXTT6=
EXTT7=
EXTT8=
EXTT9=
EXTT10=
EXTT11=
EXTT12=
PLAYORDER=
